<svg width="50" height="50" viewBox="0 0 50 50" fill="none" xmlns="http://www.w3.org/2000/svg">
<path d="M2.5 17.5C3.16304 17.5 3.79893 17.2366 4.26777 16.7678C4.73661 16.2989 5 15.663 5 15V7.5C5 6.83696 5.26339 6.20107 5.73223 5.73223C6.20107 5.26339 6.83696 5 7.5 5H15C15.663 5 16.2989 4.73661 16.7678 4.26777C17.2366 3.79893 17.5 3.16304 17.5 2.5C17.5 1.83696 17.2366 1.20107 16.7678 0.732233C16.2989 0.263392 15.663 0 15 0H7.5C5.51088 0 3.60322 0.790177 2.1967 2.1967C0.790177 3.60322 0 5.51088 0 7.5V15C0 15.663 0.263392 16.2989 0.732233 16.7678C1.20107 17.2366 1.83696 17.5 2.5 17.5ZM15 45H7.5C6.83696 45 6.20107 44.7366 5.73223 44.2678C5.26339 43.7989 5 43.163 5 42.5V35C5 34.337 4.73661 33.7011 4.26777 33.2322C3.79893 32.7634 3.16304 32.5 2.5 32.5C1.83696 32.5 1.20107 32.7634 0.732233 33.2322C0.263392 33.7011 0 34.337 0 35V42.5C0 44.4891 0.790177 46.3968 2.1967 47.8033C3.60322 49.2098 5.51088 50 7.5 50H15C15.663 50 16.2989 49.7366 16.7678 49.2678C17.2366 48.7989 17.5 48.163 17.5 47.5C17.5 46.837 17.2366 46.2011 16.7678 45.7322C16.2989 45.2634 15.663 45 15 45ZM25 15C23.0222 15 21.0888 15.5865 19.4443 16.6853C17.7998 17.7841 16.5181 19.3459 15.7612 21.1732C15.0043 23.0004 14.8063 25.0111 15.1921 26.9509C15.578 28.8907 16.5304 30.6725 17.9289 32.0711C19.3275 33.4696 21.1093 34.422 23.0491 34.8079C24.9889 35.1937 26.9996 34.9957 28.8268 34.2388C30.6541 33.4819 32.2159 32.2002 33.3147 30.5557C34.4135 28.9112 35 26.9778 35 25C35 22.3478 33.9464 19.8043 32.0711 17.9289C30.1957 16.0536 27.6522 15 25 15ZM25 30C24.0111 30 23.0444 29.7068 22.2221 29.1573C21.3999 28.6079 20.759 27.827 20.3806 26.9134C20.0022 25.9998 19.9031 24.9945 20.0961 24.0245C20.289 23.0546 20.7652 22.1637 21.4645 21.4645C22.1637 20.7652 23.0546 20.289 24.0245 20.0961C24.9945 19.9031 25.9998 20.0022 26.9134 20.3806C27.827 20.759 28.6079 21.3999 29.1573 22.2221C29.7068 23.0444 30 24.0111 30 25C30 26.3261 29.4732 27.5979 28.5355 28.5355C27.5979 29.4732 26.3261 30 25 30ZM42.5 0H35C34.337 0 33.7011 0.263392 33.2322 0.732233C32.7634 1.20107 32.5 1.83696 32.5 2.5C32.5 3.16304 32.7634 3.79893 33.2322 4.26777C33.7011 4.73661 34.337 5 35 5H42.5C43.163 5 43.7989 5.26339 44.2678 5.73223C44.7366 6.20107 45 6.83696 45 7.5V15C45 15.663 45.2634 16.2989 45.7322 16.7678C46.2011 17.2366 46.837 17.5 47.5 17.5C48.163 17.5 48.7989 17.2366 49.2678 16.7678C49.7366 16.2989 50 15.663 50 15V7.5C50 5.51088 49.2098 3.60322 47.8033 2.1967C46.3968 0.790177 44.4891 0 42.5 0ZM47.5 32.5C46.837 32.5 46.2011 32.7634 45.7322 33.2322C45.2634 33.7011 45 34.337 45 35V42.5C45 43.163 44.7366 43.7989 44.2678 44.2678C43.7989 44.7366 43.163 45 42.5 45H35C34.337 45 33.7011 45.2634 33.2322 45.7322C32.7634 46.2011 32.5 46.837 32.5 47.5C32.5 48.163 32.7634 48.7989 33.2322 49.2678C33.7011 49.7366 34.337 50 35 50H42.5C44.4891 50 46.3968 49.2098 47.8033 47.8033C49.2098 46.3968 50 44.4891 50 42.5V35C50 34.337 49.7366 33.7011 49.2678 33.2322C48.7989 32.7634 48.163 32.5 47.5 32.5Z" fill="#31A6E8"/>
</svg>
